<?xml version="1.0" standalone="no"?>
<!DOCTYPE svg PUBLIC "-//W3C//DTD SVG 20010904//EN"
 "http://www.w3.org/TR/2001/REC-SVG-20010904/DTD/svg10.dtd">
<svg version="1.0" xmlns="http://www.w3.org/2000/svg"
 width="1200.000000pt" height="630.000000pt" viewBox="0 0 1200.000000 630.000000"
 preserveAspectRatio="xMidYMid meet">

<g transform="translate(0.000000,630.000000) scale(0.100000,-0.100000)"
fill="#000000" stroke="none">
<path d="M2598 4415 c-251 -41 -528 -195 -700 -390 -172 -195 -258 -418 -275
-711 l-6 -114 91 0 92 0 0 94 c0 362 211 693 545 856 55 27 129 56 165 65 390
99 817 -57 1039 -378 77 -113 142 -278 159 -405 l9 -63 -85 3 -85 3 -24 90
c-87 329 -341 556 -670 597 -328 42 -654 -137 -798 -437 -53 -110 -74 -194
-82 -325 l-6 -100 266 0 267 0 0 68 c1 80 16 126 59 180 97 123 305 123 402 0
43 -54 58 -100 59 -180 l0 -68 90 0 90 0 0 43 c0 23 -5 71 -11 107 -38 233
-264 401 -489 362 -171 -29 -292 -130 -355 -296 l-18 -46 -83 0 c-95 0 -94 -2
-70 86 24 92 75 174 161 259 125 124 248 176 425 176 180 1 298 -49 430 -181
128 -128 180 -251 180 -427 l0 -83 265 0 265 0 0 50 c0 28 -5 94 -11 147 -34
309 -165 561 -384 742 -265 219 -611 325 -907 276z"/>
<path d="M5766 4174 c-9 -8 -16 -19 -16 -24 0 -15 31 -40 49 -40 40 0 56 51
22 70 -27 14 -37 13 -55 -6z"/>
<path d="M4567 4136 c-15 -15 -17 -44 -17 -246 0 -126 3 -235 6 -244 8 -22 41
-20 54 3 5 11 10 53 10 94 0 48 5 78 13 85 6 5 44 12 82 14 79 5 138 29 163
67 23 35 23 138 -1 174 -29 45 -71 59 -187 65 -91 4 -108 2 -123 -12z m189
-47 c53 -14 74 -40 74 -90 0 -51 -8 -67 -41 -84 -34 -18 -140 -20 -157 -3 -7
7 -12 43 -12 90 0 63 3 79 18 87 23 14 63 14 118 0z"/>
<path d="M6917 4123 c-3 -4 -8 -23 -12 -40 -4 -19 -19 -41 -36 -54 -37 -26
-36 -35 1 -54 30 -15 30 -17 31 -98 2 -192 22 -240 106 -253 34 -5 49 -3 61 9
13 13 13 19 2 31 -7 9 -22 16 -34 16 -12 0 -31 6 -41 14 -17 12 -20 30 -23
124 -5 130 2 147 58 157 35 6 41 10 38 28 -2 16 -12 23 -41 28 -46 7 -49 10
-56 56 -5 29 -12 39 -28 41 -11 2 -23 0 -26 -5z"/>
<path d="M5108 4015 c-47 -25 -48 -25 -60 -5 -15 24 -53 27 -62 4 -10 -27 -7
-344 4 -365 6 -10 17 -19 25 -19 26 0 35 37 35 140 0 64 5 113 14 135 15 34
59 65 94 65 37 0 59 51 26 64 -23 9 -25 8 -76 -19z"/>
<path d="M6032 4014 c-73 -36 -107 -95 -107 -184 0 -53 5 -74 29 -114 53 -91
171 -120 274 -67 72 37 105 102 55 109 -16 2 -34 -9 -61 -37 -36 -38 -43 -41
-93 -41 -72 0 -114 26 -130 80 -7 22 -9 43 -6 46 3 4 74 7 156 8 182 1 192 6
171 82 -35 123 -168 178 -288 118z m184 -68 c35 -35 40 -51 24 -76 -11 -17
-133 -26 -205 -15 -50 7 -55 18 -30 65 21 40 60 59 124 60 47 0 57 -4 87 -34z"/>
<path d="M5396 4018 c-122 -34 -173 -201 -97 -320 36 -57 87 -82 166 -82 164
-1 256 169 172 319 -40 72 -149 109 -241 83z m148 -69 c114 -90 42 -295 -97
-274 -76 11 -117 63 -117 150 0 91 50 145 135 145 38 0 60 -6 79 -21z"/>
<path d="M5773 4023 c-10 -3 -13 -63 -13 -251 0 -136 -4 -252 -8 -258 -4 -6
-22 -19 -39 -28 -36 -18 -39 -26 -21 -44 15 -15 50 -15 83 0 51 23 55 46 55
316 0 273 -3 287 -57 265z"/>
<path d="M6527 4016 c-47 -17 -74 -41 -97 -86 -59 -115 -21 -243 88 -297 44
-21 61 -25 103 -20 63 8 118 38 146 82 43 66 0 89 -57 30 -65 -67 -145 -71
-199 -10 -74 85 -39 233 61 254 55 12 99 -4 138 -49 38 -43 51 -48 69 -26 10
11 9 21 -2 43 -43 81 -149 115 -250 79z"/>
<path d="M7976 3287 l-26 -26 0 -461 c0 -543 -10 -500 120 -500 131 0 120 -44
120 508 0 260 -4 473 -9 481 -7 10 -36 16 -94 19 -81 4 -87 3 -111 -21z"/>
<path d="M4860 3261 c-114 -22 -216 -81 -273 -158 -77 -106 -102 -188 -101
-328 0 -110 19 -191 61 -263 149 -253 530 -297 739 -85 48 49 114 160 114 192
0 19 -48 31 -123 31 -84 0 -116 -14 -164 -70 -44 -52 -105 -74 -181 -67 -142
12 -214 105 -214 272 0 164 74 260 211 272 80 7 125 -10 182 -69 59 -62 93
-74 196 -70 96 4 101 10 74 82 -42 110 -136 199 -255 240 -66 24 -197 34 -266
21z"/>
<path d="M6532 3234 c-19 -13 -22 -24 -22 -83 0 -72 -10 -91 -46 -91 -39 0
-54 -26 -54 -93 0 -75 8 -88 57 -102 l38 -11 5 -174 c5 -163 7 -179 32 -233
48 -102 115 -140 246 -141 100 -1 112 9 112 90 0 76 -15 104 -56 104 -89 0
-101 26 -100 218 1 143 6 152 88 152 58 0 68 14 68 95 0 83 -10 95 -75 95 -69
0 -85 19 -85 105 0 34 -5 66 -12 73 -18 18 -168 16 -196 -4z"/>
<path d="M10041 3231 c-17 -17 -21 -33 -21 -84 0 -70 -10 -87 -52 -87 -36 0
-48 -24 -48 -95 0 -66 13 -95 41 -95 11 0 29 -5 40 -10 17 -10 19 -23 19 -155
0 -79 5 -168 11 -197 28 -134 99 -189 262 -203 98 -9 110 1 115 91 1 38 -1 75
-6 83 -6 7 -34 17 -63 22 -81 13 -83 18 -87 179 -2 86 1 146 7 159 8 14 26 21
66 26 74 10 85 22 85 100 0 79 -13 95 -80 95 -62 0 -80 22 -80 100 0 80 -5 84
-104 88 -75 4 -86 2 -105 -17z"/>
<path d="M5757 3060 c-176 -44 -283 -239 -249 -453 22 -145 76 -228 179 -279
57 -28 77 -33 142 -33 87 0 140 21 202 82 l37 35 7 -41 c9 -57 33 -71 122 -71
120 0 113 -23 113 380 0 400 5 380 -104 380 -90 0 -112 -11 -127 -60 -7 -22
-14 -40 -17 -40 -2 0 -22 16 -44 36 -22 20 -55 42 -74 50 -45 19 -139 26 -187
14z m250 -226 c42 -30 65 -85 65 -154 0 -117 -58 -180 -165 -180 -74 0 -118
26 -147 86 -46 94 -8 228 75 265 35 16 142 5 172 -17z"/>
<path d="M7235 3056 c-64 -20 -99 -42 -139 -87 -136 -150 -138 -428 -4 -574
108 -119 273 -136 403 -43 31 22 57 38 59 37 1 -2 9 -19 16 -37 16 -42 42 -52
130 -52 105 0 100 -20 100 385 0 195 -4 346 -10 355 -12 19 -152 27 -192 11
-22 -8 -28 -17 -28 -41 0 -44 -22 -46 -74 -6 -78 60 -176 79 -261 52z m263
-223 c42 -31 62 -81 62 -151 0 -76 -26 -134 -73 -162 -43 -27 -140 -27 -183
-1 -87 53 -99 224 -22 300 52 51 157 58 216 14z"/>
<path d="M8347 3062 c-35 -2 -60 -8 -63 -16 -4 -11 18 -67 151 -376 18 -42 46
-103 63 -136 17 -33 38 -86 47 -119 27 -90 17 -141 -55 -287 -35 -73 -60 -136
-58 -149 4 -29 51 -42 136 -37 93 6 100 16 235 343 64 154 159 383 212 508 52
126 95 234 95 242 0 17 -23 25 -96 32 -76 7 -124 -8 -147 -46 -9 -15 -36 -84
-61 -152 -69 -194 -88 -239 -100 -239 -6 0 -38 69 -70 153 -75 192 -100 243
-129 261 -27 17 -82 23 -160 18z"/>
<path d="M9365 3046 c-88 -30 -138 -82 -155 -159 -15 -65 -3 -117 39 -168 35
-43 76 -63 174 -90 198 -54 207 -59 207 -108 0 -76 -125 -90 -189 -21 -40 42
-63 50 -151 50 -95 0 -101 -6 -70 -78 66 -153 291 -224 484 -152 151 57 194
235 81 339 -42 39 -111 66 -267 106 -102 27 -131 65 -89 116 16 20 28 24 71
23 48 0 54 -4 94 -48 l44 -47 88 3 c89 3 89 3 92 30 7 55 -80 152 -172 193
-88 39 -190 43 -281 11z"/>
<path d="M1660 3011 c0 -5 10 -40 21 -77 84 -273 303 -525 576 -664 213 -110
493 -145 740 -94 333 68 626 291 776 589 46 92 64 136 81 201 l14 54 -1104 0
c-643 0 -1104 -4 -1104 -9z"/>
</g>
</svg>
