<?xml version="1.0" standalone="no"?>
<!DOCTYPE svg PUBLIC "-//W3C//DTD SVG 20010904//EN"
 "http://www.w3.org/TR/2001/REC-SVG-20010904/DTD/svg10.dtd">
<svg version="1.0" xmlns="http://www.w3.org/2000/svg"
 width="992.000000pt" height="684.000000pt" viewBox="0 0 992.000000 684.000000"
 preserveAspectRatio="xMidYMid meet">

<g transform="translate(0.000000,684.000000) scale(0.100000,-0.100000)"
fill="#000000" stroke="none">
<path d="M1274 4970 c-293 -30 -560 -161 -764 -376 -77 -81 -167 -208 -215
-303 -72 -145 -125 -373 -125 -543 l0 -88 93 0 94 0 6 128 c7 143 23 220 68
337 93 237 281 440 516 559 147 73 354 114 518 101 428 -33 791 -323 920 -735
14 -47 29 -113 32 -147 l6 -63 -91 0 -92 0 -5 28 c-21 102 -51 196 -81 256
-95 187 -222 310 -407 396 -136 62 -193 74 -352 74 -163 0 -223 -13 -360 -78
-301 -143 -485 -433 -485 -766 l0 -90 279 0 278 0 5 79 c10 176 122 291 283
291 160 0 270 -112 282 -289 l6 -81 93 0 94 0 0 38 c-2 195 -76 351 -210 441
-266 177 -624 50 -715 -254 l-12 -40 -88 -3 c-49 -2 -91 1 -96 5 -12 13 19
113 62 203 59 119 171 231 291 289 192 93 395 93 586 0 120 -58 231 -169 290
-289 54 -111 72 -183 72 -297 l0 -93 285 0 285 0 0 78 c0 514 -313 973 -788
1157 -163 63 -384 92 -558 75z"/>
<path d="M4918 4519 c-26 -15 -23 -58 5 -68 50 -19 88 27 51 63 -18 18 -32 20
-56 5z"/>
<path d="M3590 4225 l0 -255 35 0 35 0 0 100 0 100 50 0 c88 0 146 18 179 56
72 82 41 216 -57 244 -20 5 -83 10 -139 10 l-103 0 0 -255z m194 195 c52 -11
67 -29 73 -82 4 -37 1 -49 -20 -73 -23 -27 -32 -30 -101 -33 l-76 -4 0 101 0
101 43 0 c23 0 60 -5 81 -10z"/>
<path d="M6160 4421 c0 -50 -1 -51 -30 -51 -27 0 -30 -3 -30 -30 0 -27 3 -30
30 -30 l30 0 0 -125 c0 -183 18 -215 120 -215 50 0 51 1 48 28 -3 23 -8 27
-38 30 -58 6 -60 12 -60 153 l0 129 50 0 c49 0 50 1 50 30 0 29 -1 30 -49 30
l-50 0 -3 48 c-3 45 -4 47 -35 50 l-33 3 0 -50z"/>
<path d="M4056 4354 c-3 -9 -6 -99 -6 -200 l0 -184 35 0 35 0 0 115 c0 77 5
127 14 150 16 38 60 65 106 65 28 0 30 3 30 35 0 31 -3 35 -25 35 -30 0 -76
-22 -94 -44 -20 -24 -31 -19 -31 14 0 26 -3 30 -29 30 -17 0 -31 -6 -35 -16z"/>
<path d="M4480 4354 c-80 -35 -114 -96 -108 -199 6 -128 71 -190 198 -190 78
0 121 22 163 81 71 101 29 265 -80 310 -42 18 -129 17 -173 -2z m164 -65 c81
-64 73 -206 -15 -252 -77 -41 -170 3 -189 89 -15 66 8 137 54 165 43 26 115
25 150 -2z"/>
<path d="M4910 4117 c0 -273 1 -269 -53 -282 -20 -5 -27 -13 -27 -31 0 -22 4
-24 44 -24 33 0 52 6 73 24 l28 24 0 269 0 268 -32 3 -33 3 0 -254z"/>
<path d="M5225 4356 c-92 -41 -133 -148 -101 -259 39 -136 211 -182 320 -86
33 29 60 81 49 93 -4 3 -19 6 -35 6 -21 0 -31 -6 -38 -24 -33 -88 -189 -89
-226 -1 -27 67 -31 65 146 65 l160 0 0 39 c0 74 -42 139 -107 167 -41 18 -129
17 -168 0z m140 -50 c30 -13 65 -58 65 -86 0 -6 -44 -10 -125 -10 -69 0 -125
3 -125 8 0 21 45 75 73 87 41 18 69 18 112 1z"/>
<path d="M5725 4354 c-73 -40 -104 -96 -105 -188 0 -78 29 -138 83 -174 34
-23 51 -27 112 -27 61 0 78 4 112 27 36 24 73 78 73 107 0 6 -15 11 -33 11
-26 0 -35 -5 -46 -31 -24 -53 -102 -74 -166 -43 -42 20 -65 67 -65 134 0 92
43 140 127 140 55 0 86 -17 108 -61 12 -22 22 -29 45 -29 20 0 30 5 30 15 0
29 -29 74 -67 102 -30 23 -47 28 -107 31 -51 2 -79 -2 -101 -14z"/>
<path d="M7040 3315 l0 -495 115 0 115 0 0 495 0 495 -115 0 -115 0 0 -495z"/>
<path d="M3935 3770 c-228 -36 -374 -223 -375 -479 0 -149 64 -303 157 -377
147 -119 377 -138 545 -47 90 49 179 165 203 266 l7 27 -119 0 -119 0 -31 -43
c-42 -60 -108 -92 -188 -91 -71 1 -108 18 -158 73 -42 47 -60 101 -61 191 -1
98 20 157 75 212 53 52 85 63 178 56 67 -5 115 -34 160 -99 l26 -38 119 -1
119 0 -7 32 c-31 158 -185 293 -361 318 -79 11 -99 11 -170 0z"/>
<path d="M5590 3660 l0 -90 -50 0 -50 0 0 -100 0 -100 50 0 50 0 0 -160 c0
-183 10 -243 50 -298 44 -62 105 -86 228 -90 l102 -4 0 95 0 94 -60 7 c-87 10
-90 17 -90 203 l0 153 75 0 75 0 0 100 0 100 -75 0 -75 0 0 90 0 90 -115 0
-115 0 0 -90z"/>
<path d="M9120 3661 l0 -90 -47 -3 -48 -3 0 -95 0 -95 48 -3 47 -3 0 -153 c0
-181 10 -247 48 -300 44 -65 106 -90 229 -94 l103 -4 0 95 0 94 -60 7 c-87 10
-90 17 -90 203 l0 153 75 0 75 0 0 100 0 100 -75 0 -75 0 0 90 0 90 -115 0
-115 0 0 -89z"/>
<path d="M4831 3570 c-79 -17 -152 -71 -199 -150 -62 -106 -70 -299 -17 -418
34 -77 113 -152 181 -176 118 -40 249 -6 317 82 l27 35 0 -61 0 -62 115 0 115
0 -2 373 -3 372 -112 3 -113 3 0 -62 0 -63 -35 41 c-61 71 -170 104 -274 83z
m254 -240 c79 -77 71 -229 -16 -291 -27 -19 -47 -24 -96 -24 -74 0 -107 20
-140 85 -38 74 -25 169 30 228 32 35 55 42 124 39 56 -3 67 -7 98 -37z"/>
<path d="M6333 3570 c-116 -24 -207 -118 -242 -248 -19 -68 -15 -208 8 -280
42 -136 142 -220 272 -230 98 -7 152 11 213 70 27 26 51 48 53 48 2 0 3 -25 3
-55 l0 -55 115 0 115 0 -2 373 -3 372 -112 3 -113 3 0 -61 0 -61 -48 48 c-66
66 -163 93 -259 73z m227 -223 c51 -34 74 -80 74 -151 0 -80 -24 -129 -79
-161 -127 -75 -258 24 -242 182 10 101 65 152 163 153 37 0 60 -6 84 -23z"/>
<path d="M8514 3571 c-72 -12 -119 -37 -164 -88 -82 -93 -62 -237 42 -301 18
-11 80 -32 138 -47 58 -15 124 -35 148 -45 38 -17 42 -22 42 -54 0 -42 -28
-66 -78 -66 -55 0 -101 25 -117 65 l-15 35 -110 0 -110 0 6 -27 c22 -92 77
-158 166 -199 58 -27 72 -29 178 -29 106 0 120 2 173 28 103 51 144 142 113
249 -26 90 -76 123 -266 172 -126 33 -150 47 -150 85 0 39 31 64 79 64 47 0
86 -23 109 -64 l17 -29 103 0 c118 0 119 1 76 88 -63 126 -210 189 -380 163z"/>
<path d="M7380 3559 c0 -6 29 -77 64 -157 35 -81 103 -236 150 -345 47 -109
86 -204 86 -211 0 -7 -38 -96 -84 -197 l-84 -184 116 -3 c64 -1 121 -1 128 2
6 2 23 33 37 68 14 34 46 110 70 168 25 58 106 249 180 425 74 176 144 342
156 368 34 79 37 77 -100 77 l-120 0 -13 -32 c-8 -18 -44 -116 -81 -218 -37
-102 -70 -188 -74 -193 -4 -4 -20 25 -35 65 -16 40 -56 142 -89 226 l-60 152
-123 0 c-82 0 -124 -4 -124 -11z"/>
<path d="M210 3456 c0 -8 9 -44 21 -81 91 -296 317 -564 598 -709 187 -97 356
-138 566 -138 201 0 373 40 545 127 245 124 455 339 565 581 35 77 75 194 75
220 0 12 -178 14 -1185 14 -1007 0 -1185 -2 -1185 -14z"/>
<path d="M3528 1960 c-83 -25 -128 -97 -128 -205 0 -92 26 -146 87 -182 85
-50 189 -30 240 47 29 42 29 56 -1 64 -13 3 -30 8 -38 11 -8 3 -18 -6 -25 -25
-8 -20 -24 -35 -49 -46 -35 -14 -41 -14 -71 0 -89 42 -82 237 9 270 43 15 91
-6 116 -49 6 -12 15 -13 45 -4 20 5 37 13 37 17 0 4 -9 22 -20 40 -35 57 -126
85 -202 62z"/>
<path d="M762 1928 c3 -33 3 -33 66 -36 l62 -3 0 -169 0 -170 40 0 40 0 0 170
0 170 60 0 60 0 0 35 0 35 -166 0 -165 0 3 -32z"/>
<path d="M2250 1755 l0 -205 39 0 39 0 4 105 c3 115 14 138 64 138 44 0 54
-25 54 -140 l0 -103 35 0 35 0 0 125 c0 120 -1 127 -25 150 -32 33 -100 35
-139 4 l-26 -20 0 75 0 76 -40 0 -40 0 0 -205z"/>
<path d="M2930 1755 l0 -205 35 0 35 0 0 205 0 205 -35 0 -35 0 0 -205z"/>
<path d="M3090 1755 l0 -205 35 0 35 0 0 205 0 205 -35 0 -35 0 0 -205z"/>
<path d="M3820 1755 l0 -205 39 0 39 0 4 105 c3 115 14 138 64 138 44 0 54
-25 54 -140 l0 -103 35 0 35 0 0 125 c0 120 -1 127 -25 150 -32 33 -100 35
-139 4 l-26 -20 0 75 0 76 -40 0 -40 0 0 -205z"/>
<path d="M5530 1755 l0 -205 35 0 35 0 0 205 0 205 -35 0 -35 0 0 -205z"/>
<path d="M5850 1925 c0 -33 2 -35 35 -35 33 0 35 2 35 35 0 33 -2 35 -35 35
-33 0 -35 -2 -35 -35z"/>
<path d="M6482 1948 c3 -7 36 -100 73 -206 l68 -193 45 3 44 3 69 194 c38 106
69 197 69 202 0 5 -18 9 -39 9 l-40 0 -48 -145 c-26 -80 -50 -145 -53 -145 -4
0 -29 65 -56 145 l-49 145 -44 0 c-30 0 -42 -4 -39 -12z"/>
<path d="M6890 1925 c0 -34 1 -35 40 -35 39 0 40 1 40 35 0 34 -1 35 -40 35
-39 0 -40 -1 -40 -35z"/>
<path d="M7413 1929 c-25 -16 -33 -28 -33 -50 0 -22 -5 -29 -20 -29 -15 0 -20
-7 -20 -29 0 -20 6 -30 20 -34 18 -5 20 -14 20 -104 0 -54 4 -104 8 -111 11
-16 59 -29 95 -24 22 3 27 8 27 32 0 24 -5 29 -27 32 l-28 3 0 85 0 85 28 3
c23 3 27 8 27 33 0 25 -4 29 -29 29 -29 0 -30 2 -33 50 l-3 49 -32 -20z"/>
<path d="M1153 1831 c-42 -27 -65 -73 -65 -132 1 -81 41 -133 115 -148 150
-32 247 143 143 257 -31 33 -39 36 -97 39 -51 3 -70 0 -96 -16z m136 -67 c43
-54 13 -154 -45 -154 -60 0 -92 53 -74 121 17 63 81 81 119 33z"/>
<path d="M1420 1844 c0 -4 20 -71 46 -150 l45 -144 38 0 37 0 26 98 25 97 12
-45 c43 -158 39 -150 79 -150 l37 0 44 138 c24 75 46 143 48 150 3 8 -7 12
-34 12 l-39 0 -24 -82 c-12 -46 -26 -89 -30 -97 -5 -8 -17 25 -31 83 l-23 96
-38 0 c-35 0 -38 -2 -48 -42 -6 -24 -18 -68 -27 -98 -18 -62 -14 -67 -53 68
-21 71 -21 72 -55 72 -19 0 -35 -3 -35 -6z"/>
<path d="M1900 1700 l0 -150 40 0 40 0 0 100 c0 95 2 102 25 126 15 15 32 23
41 20 9 -3 20 -6 24 -6 16 0 30 -73 30 -157 l0 -83 35 0 35 0 0 125 c0 120 -1
127 -25 150 -31 32 -95 34 -142 5 -33 -20 -33 -20 -33 0 0 16 -7 20 -35 20
l-35 0 0 -150z"/>
<path d="M2629 1821 c-37 -37 -37 -48 0 -56 22 -5 35 -1 50 14 24 24 30 25 65
11 16 -6 26 -17 26 -29 0 -15 -14 -22 -69 -36 -86 -21 -114 -47 -109 -100 2
-27 11 -44 29 -58 33 -24 98 -25 132 -2 22 14 25 14 30 0 4 -9 19 -15 39 -15
l34 0 -4 108 c-5 173 -19 192 -133 192 -54 0 -64 -3 -90 -29z m141 -158 c0
-56 -76 -88 -100 -42 -19 34 16 62 83 68 12 1 17 -6 17 -26z"/>
<path d="M4199 1821 c-37 -37 -37 -48 0 -56 22 -5 35 -1 50 14 24 24 30 25 65
11 16 -6 26 -17 26 -29 0 -15 -14 -22 -69 -36 -86 -21 -114 -47 -109 -100 2
-27 11 -44 29 -58 33 -24 98 -25 132 -2 22 14 25 14 30 0 4 -9 19 -15 39 -15
l34 0 -4 108 c-5 173 -19 192 -133 192 -54 0 -64 -3 -90 -29z m141 -158 c0
-56 -76 -88 -100 -42 -19 34 16 62 83 68 12 1 17 -6 17 -26z"/>
<path d="M4500 1700 l0 -150 35 0 35 0 0 78 c0 101 14 150 46 162 57 22 74 -9
74 -139 l0 -101 41 0 41 0 -3 124 c-4 115 -6 126 -28 150 -32 34 -105 37 -145
5 l-26 -20 0 20 c0 17 -6 21 -35 21 l-35 0 0 -150z"/>
<path d="M4850 1700 l0 -150 40 0 39 0 3 106 c3 103 4 108 30 127 25 19 28 19
52 3 25 -16 26 -20 26 -126 l0 -110 40 0 40 0 0 115 c0 120 -12 166 -45 179
-35 13 -97 6 -126 -15 l-29 -20 0 20 c0 17 -6 21 -35 21 l-35 0 0 -150z"/>
<path d="M5227 1817 c-40 -37 -53 -83 -42 -153 12 -85 84 -132 175 -113 43 9
99 67 79 80 -24 15 -58 10 -79 -11 -11 -11 -28 -20 -38 -20 -23 0 -62 40 -62
63 0 15 13 17 100 17 l101 0 -7 38 c-16 93 -58 132 -142 132 -43 0 -56 -5 -85
-33z m127 -38 c14 -11 26 -29 26 -40 0 -17 -7 -19 -60 -19 -53 0 -60 2 -60 19
0 18 43 61 60 61 4 0 19 -9 34 -21z"/>
<path d="M5850 1700 l0 -150 35 0 35 0 0 150 0 150 -35 0 -35 0 0 -150z"/>
<path d="M6007 1843 c-4 -3 -7 -71 -7 -150 l0 -143 39 0 39 0 4 105 c3 115 14
138 64 138 44 0 54 -25 54 -140 l0 -103 35 0 35 0 0 125 c0 120 -1 127 -25
150 -31 32 -100 35 -138 5 -25 -20 -25 -20 -30 0 -4 14 -14 20 -34 20 -16 0
-33 -3 -36 -7z"/>
<path d="M6890 1700 l0 -150 40 0 40 0 0 150 0 150 -40 0 -40 0 0 -150z"/>
<path d="M7077 1817 c-40 -37 -53 -83 -42 -153 12 -85 84 -132 175 -113 43 9
99 67 79 80 -24 15 -58 10 -79 -11 -11 -11 -28 -20 -38 -20 -23 0 -62 40 -62
63 0 15 13 17 100 17 l101 0 -7 38 c-16 93 -58 132 -142 132 -43 0 -56 -5 -85
-33z m127 -38 c14 -11 26 -29 26 -40 0 -17 -7 -19 -60 -19 -53 0 -60 2 -60 19
0 18 43 61 60 61 4 0 19 -9 34 -21z"/>
<path d="M7567 1843 c-4 -3 -7 -71 -7 -150 l0 -143 39 0 39 0 4 105 c3 115 14
138 64 138 44 0 54 -25 54 -140 l0 -103 35 0 35 0 0 125 c0 120 -1 127 -25
150 -31 32 -100 35 -138 5 -25 -20 -25 -20 -30 0 -4 14 -14 20 -34 20 -16 0
-33 -3 -36 -7z"/>
<path d="M7939 1821 c-37 -37 -37 -48 0 -56 22 -5 35 -1 50 14 24 24 30 25 65
11 16 -6 26 -17 26 -29 0 -15 -14 -22 -69 -36 -86 -21 -114 -47 -109 -100 2
-27 11 -44 29 -58 33 -24 98 -25 132 -2 22 14 25 14 30 0 4 -9 19 -15 39 -15
l34 0 -4 108 c-5 173 -19 192 -133 192 -54 0 -64 -3 -90 -29z m141 -158 c0
-56 -76 -88 -100 -42 -19 34 16 62 83 68 12 1 17 -6 17 -26z"/>
<path d="M8230 1700 l0 -150 40 0 40 0 0 104 c0 101 1 105 26 125 32 25 38 26
58 5 13 -12 16 -39 16 -125 l0 -109 40 0 40 0 0 96 c0 52 5 104 10 114 16 30
46 43 70 30 18 -10 20 -21 20 -125 l0 -115 40 0 40 0 0 115 c0 120 -12 166
-45 179 -34 13 -93 6 -118 -14 l-26 -21 -21 21 c-28 28 -98 27 -134 -1 l-26
-20 0 20 c0 17 -6 21 -35 21 l-35 0 0 -150z"/>
<path d="M8786 1829 c-38 -30 -56 -71 -56 -129 0 -99 48 -150 142 -150 55 0
63 3 96 36 29 29 33 37 21 45 -24 15 -64 10 -82 -11 -9 -11 -26 -20 -37 -20
-26 0 -60 34 -60 60 0 19 7 20 95 20 l95 0 0 35 c0 81 -55 135 -135 135 -38 0
-60 -6 -79 -21z m112 -46 c12 -10 22 -27 24 -38 3 -18 -3 -20 -54 -23 -51 -3
-58 -1 -58 16 0 29 28 57 61 61 4 1 16 -7 27 -16z"/>
<path d="M9105 1838 c-31 -18 -44 -40 -45 -75 0 -44 27 -69 97 -88 32 -9 64
-18 71 -20 17 -6 15 -42 -4 -49 -30 -12 -64 -6 -84 14 -21 21 -90 28 -90 9 0
-44 60 -81 134 -81 92 0 141 37 134 103 -4 42 -44 70 -122 88 -58 13 -81 35
-55 52 22 14 66 11 83 -6 17 -17 72 -20 81 -5 4 6 -7 24 -24 40 -27 27 -36 30
-93 30 -35 0 -72 -6 -83 -12z"/>
<path d="M9417 1817 c-40 -37 -53 -83 -42 -153 12 -85 84 -132 175 -113 43 9
99 67 79 80 -24 15 -58 10 -79 -11 -11 -11 -28 -20 -38 -20 -23 0 -62 40 -62
63 0 15 13 17 100 17 l101 0 -7 38 c-16 93 -58 132 -142 132 -43 0 -56 -5 -85
-33z m127 -38 c14 -11 26 -29 26 -40 0 -17 -7 -19 -60 -19 -53 0 -60 2 -60 19
0 18 43 61 60 61 4 0 19 -9 34 -21z"/>
</g>
</svg>
