<?xml version="1.0" standalone="no"?>
<!DOCTYPE svg PUBLIC "-//W3C//DTD SVG 20010904//EN"
 "http://www.w3.org/TR/2001/REC-SVG-20010904/DTD/svg10.dtd">
<svg version="1.0" xmlns="http://www.w3.org/2000/svg"
 width="624.000000pt" height="351.000000pt" viewBox="0 0 624.000000 351.000000"
 preserveAspectRatio="xMidYMid meet">

<g transform="translate(0.000000,351.000000) scale(0.100000,-0.100000)"
fill="#000000" stroke="none">
<path d="M1430 2910 c-1 -38 -1 -110 -1 -160 0 -49 0 -101 1 -115 0 -22 4 -25
35 -25 l35 0 0 86 c0 101 9 124 50 124 41 0 50 -23 50 -124 l0 -86 35 0 35 0
0 104 c0 121 -3 132 -41 151 -36 19 -63 19 -99 0 l-30 -16 0 66 0 65 -35 0
-35 0 0 -70z"/>
<path d="M1722 2953 c3 -25 7 -28 38 -28 31 0 35 3 38 28 3 26 1 27 -38 27
-39 0 -41 -1 -38 -27z"/>
<path d="M520 2791 l0 -181 40 0 40 0 0 48 c0 38 5 53 24 71 l23 22 42 -71
c42 -70 42 -70 86 -70 l44 0 -59 99 c-33 54 -60 102 -60 105 0 4 25 38 55 75
30 38 55 71 55 75 0 3 -18 6 -39 6 -37 0 -43 -4 -103 -81 l-63 -80 -5 78 -5
78 -37 3 -38 3 0 -180z"/>
<path d="M900 2873 c-26 -10 -60 -46 -60 -65 0 -26 60 -25 83 2 27 32 87 19
87 -20 0 -19 0 -19 -108 -36 -45 -7 -72 -36 -72 -78 0 -42 19 -63 68 -72 27
-5 45 -2 73 13 35 19 37 19 59 1 23 -19 47 -22 74 -12 23 9 20 41 -4 47 -18 5
-20 14 -20 90 0 92 -8 109 -57 128 -26 10 -98 11 -123 2z m102 -187 c-21 -47
-92 -47 -92 -2 0 25 4 28 65 39 30 5 40 -9 27 -37z"/>
<path d="M1192 2860 c-63 -38 -81 -147 -35 -209 59 -78 223 -54 223 34 0 22
-4 25 -35 25 -27 0 -35 -4 -35 -18 0 -41 -54 -57 -83 -24 -25 28 -23 123 3
147 26 24 68 13 76 -20 5 -21 12 -25 40 -25 29 0 34 4 34 23 0 70 -115 111
-188 67z"/>
<path d="M1732 2872 c-9 -3 -12 -41 -12 -133 l0 -129 40 0 40 0 0 130 c0 72
-3 130 -7 131 -5 0 -17 2 -28 3 -12 1 -26 1 -33 -2z"/>
<path d="M1863 2873 c-10 -3 -13 -40 -13 -134 l0 -129 35 0 35 0 0 86 c0 101
9 124 50 124 41 0 50 -23 50 -124 l0 -86 35 0 35 0 0 109 c0 125 -10 148 -72
158 -28 4 -46 0 -73 -15 -19 -12 -35 -17 -35 -12 0 13 -32 28 -47 23z"/>
<path d="M2185 2864 c-34 -17 -45 -31 -45 -56 0 -25 54 -24 80 2 24 24 53 26
74 4 26 -26 19 -43 -21 -49 -21 -3 -53 -8 -71 -11 -45 -7 -72 -36 -72 -77 0
-66 79 -97 145 -58 35 21 35 21 55 1 20 -20 45 -25 74 -14 23 9 20 41 -4 47
-18 5 -20 14 -20 87 0 45 -4 90 -10 100 -21 39 -130 53 -185 24z m125 -159 c0
-50 -92 -74 -98 -26 -5 29 12 41 61 41 26 0 37 -4 37 -15z"/>
<path d="M2447 2874 c-4 -4 -7 -22 -7 -41 0 -32 1 -33 41 -33 l40 0 -3 37 c-3
33 -6 37 -34 40 -16 2 -33 1 -37 -3z"/>
<path d="M2440 2645 c0 -34 1 -35 40 -35 39 0 40 1 40 35 0 34 -1 35 -40 35
-39 0 -40 -1 -40 -35z"/>
<path d="M1050 2531 c0 -30 2 -31 41 -31 38 0 40 1 37 28 -3 23 -8 27 -40 30
-36 3 -38 2 -38 -27z"/>
<path d="M4330 2530 c0 -28 2 -30 40 -30 38 0 40 2 40 30 0 28 -2 30 -40 30
-38 0 -40 -2 -40 -30z"/>
<path d="M4942 2475 c-11 -23 -17 -25 -75 -25 -54 0 -68 -4 -91 -25 -30 -28
-34 -69 -9 -97 16 -18 15 -19 -5 -34 -23 -16 -31 -68 -11 -79 7 -5 5 -12 -4
-23 -16 -18 -20 -34 -18 -65 1 -25 56 -44 116 -41 28 1 64 3 82 3 47 1 86 39
85 82 -1 53 -29 69 -118 69 -59 0 -76 3 -81 16 -8 22 14 34 62 34 80 1 130 53
102 108 -12 26 -12 29 10 45 33 26 31 57 -5 57 -21 0 -32 -7 -40 -25z m-51
-75 c25 -14 24 -46 -2 -61 -46 -24 -96 34 -51 60 22 13 29 13 53 1z m44 -245
c0 -18 -8 -20 -64 -23 -67 -3 -88 6 -77 33 5 13 19 15 73 13 60 -3 68 -5 68
-23z"/>
<path d="M4587 2449 c-16 -4 -35 -13 -44 -20 -12 -11 -17 -10 -24 4 -6 9 -21
17 -34 17 l-25 0 0 -135 0 -135 35 0 35 0 0 90 c0 77 3 93 20 110 25 25 42 25
63 2 13 -15 17 -39 17 -110 l0 -92 35 0 35 0 0 113 c0 96 -3 116 -18 130 -27
24 -64 35 -95 26z"/>
<path d="M520 2270 l0 -180 35 0 35 0 0 55 c0 55 6 65 27 44 16 -16 80 -13
107 5 33 21 50 77 43 145 -5 46 -11 61 -37 84 -35 31 -92 37 -127 12 -19 -13
-22 -13 -27 0 -3 8 -17 15 -31 15 l-25 0 0 -180z m168 100 c19 -37 9 -110 -18
-132 -28 -23 -35 -23 -60 2 -26 26 -28 120 -4 145 23 23 66 15 82 -15z"/>
<path d="M810 2314 l0 -135 38 3 37 3 3 97 c3 103 13 125 52 113 11 -3 20 -15
20 -26 0 -15 7 -19 35 -19 29 0 35 4 35 21 0 23 -18 60 -34 71 -19 13 -71 9
-92 -7 -25 -19 -34 -19 -34 0 0 10 -10 15 -30 15 l-30 0 0 -136z"/>
<path d="M1050 2315 l0 -136 38 3 37 3 0 130 0 130 -37 3 -38 3 0 -136z"/>
<path d="M1155 2433 c3 -10 25 -71 47 -135 l40 -118 43 0 c42 0 44 2 59 43 34
90 76 212 76 220 0 4 -15 7 -34 7 -34 0 -34 0 -61 -85 -15 -47 -30 -85 -34
-85 -4 0 -19 38 -35 85 l-27 85 -41 0 c-34 0 -39 -3 -33 -17z"/>
<path d="M1473 2431 c-46 -29 -45 -61 1 -61 18 0 39 7 46 15 26 31 90 13 90
-26 0 -13 -13 -18 -65 -24 -83 -9 -115 -32 -115 -84 0 -24 7 -44 19 -55 25
-23 100 -23 135 -1 25 17 27 17 39 1 9 -13 24 -17 52 -14 33 2 41 7 43 26 2
12 0 22 -5 21 -30 -5 -33 3 -33 85 0 114 -12 129 -106 134 -56 2 -75 -1 -101
-17z m137 -145 c0 -20 -31 -53 -56 -60 -24 -7 -58 18 -51 38 10 30 107 50 107
22z"/>
<path d="M1789 2435 c-53 -29 -76 -133 -44 -195 23 -45 53 -60 118 -60 51 0
62 4 88 29 16 16 29 39 29 50 0 17 -6 21 -35 21 -24 0 -35 -5 -35 -15 0 -8
-11 -22 -25 -31 -23 -15 -27 -15 -50 0 -25 17 -28 29 -25 101 2 50 14 65 52
65 24 0 32 -6 41 -30 9 -25 17 -30 44 -30 22 0 33 5 33 15 0 28 -24 67 -51 81
-35 18 -106 17 -140 -1z"/>
<path d="M1990 2445 c0 -3 22 -64 50 -135 27 -71 47 -136 44 -145 -8 -20 -39
-36 -57 -29 -9 3 -16 -3 -20 -16 -4 -16 1 -24 18 -32 32 -14 79 5 106 44 17
23 129 298 129 315 0 2 -17 3 -37 1 -37 -3 -37 -4 -61 -78 -13 -41 -26 -78
-30 -82 -4 -4 -21 31 -37 77 l-29 85 -38 0 c-21 0 -38 -2 -38 -5z"/>
<path d="M2420 2270 l0 -180 40 0 40 0 0 55 c0 30 2 55 3 55 2 0 18 -7 34 -15
44 -22 99 -2 124 45 35 64 18 169 -32 204 -29 20 -88 21 -116 1 -19 -13 -22
-13 -27 0 -3 9 -18 15 -36 15 l-30 0 0 -180z m169 116 c6 -7 12 -39 12 -71 2
-50 -2 -61 -21 -77 -28 -23 -35 -23 -60 2 -22 22 -28 106 -10 141 12 22 62 26
79 5z"/>
<path d="M2720 2315 l0 -135 35 0 35 0 0 89 c0 71 4 93 18 112 22 26 51 21 59
-11 4 -15 14 -20 40 -20 35 0 35 1 29 32 -3 17 -14 40 -23 50 -20 22 -85 24
-103 3 -7 -8 -16 -15 -21 -15 -5 0 -9 7 -9 15 0 10 -10 15 -30 15 l-30 0 0
-135z"/>
<path d="M3001 2425 c-37 -32 -55 -84 -47 -138 13 -82 59 -112 164 -108 39 1
92 48 92 80 0 17 -6 21 -35 21 -24 0 -35 -5 -35 -15 0 -8 -11 -22 -24 -30 -39
-26 -86 2 -86 51 0 11 19 14 90 14 l90 0 0 41 c0 22 -5 49 -10 60 -29 53 -147
67 -199 24z m130 -46 c15 -30 0 -41 -51 -37 -48 3 -59 17 -35 42 24 23 72 21
86 -5z"/>
<path d="M3295 2440 c-49 -19 -66 -74 -35 -113 15 -19 36 -29 80 -38 65 -13
91 -32 72 -51 -18 -18 -78 -14 -100 5 -26 24 -72 23 -72 -2 0 -38 46 -61 121
-61 86 0 123 25 123 85 0 43 -18 60 -79 75 -74 18 -90 25 -90 40 0 22 83 27
91 6 7 -17 74 -23 74 -7 0 23 -15 43 -41 56 -30 16 -111 19 -144 5z"/>
<path d="M3581 2437 c-43 -22 -65 -63 -65 -121 0 -91 49 -141 139 -139 62 2
99 22 113 63 13 35 8 40 -35 40 -22 0 -33 -5 -33 -15 0 -8 -11 -22 -24 -30
-20 -14 -29 -14 -48 -4 -28 14 -38 28 -38 52 0 15 11 17 90 17 103 0 110 6 91
70 -16 53 -56 80 -118 80 -26 0 -59 -6 -72 -13z m109 -57 c16 -30 4 -40 -45
-40 -51 0 -64 13 -39 41 23 25 70 25 84 -1z"/>
<path d="M3820 2315 l0 -135 35 0 35 0 0 94 c0 74 4 98 16 111 21 21 46 16 59
-13 7 -15 18 -22 37 -22 24 0 28 4 28 28 0 44 -26 72 -66 72 -19 0 -45 -7 -58
-15 -21 -14 -24 -14 -29 0 -4 8 -18 15 -32 15 l-25 0 0 -135z"/>
<path d="M4041 2438 c0 -7 19 -67 43 -133 l42 -120 46 -3 45 -3 43 123 c23 68
45 129 48 136 3 10 -5 13 -33 10 l-38 -3 -30 -90 -31 -90 -30 93 -30 92 -38 0
c-24 0 -38 -5 -37 -12z"/>
<path d="M4330 2315 l0 -135 40 0 40 0 0 135 0 135 -40 0 -40 0 0 -135z"/>
<path d="M2250 2320 l0 -30 70 0 70 0 0 30 0 30 -70 0 -70 0 0 -30z"/>
<path d="M5230 2346 c0 -2 8 -10 18 -17 15 -13 16 -12 3 4 -13 16 -21 21 -21
13z"/>
<path d="M5277 2299 c7 -7 15 -10 18 -7 3 3 -2 9 -12 12 -14 6 -15 5 -6 -5z"/>
<path d="M5320 2250 c12 -16 26 -30 32 -30 10 0 -1 18 -29 47 -22 24 -24 13
-3 -17z"/>
<path d="M5355 2195 c4 -11 14 -39 22 -63 8 -24 17 -42 19 -40 6 7 -26 102
-38 113 -8 7 -9 5 -3 -10z"/>
<path d="M5621 2111 l-30 -30 37 6 c61 8 64 10 52 33 -14 27 -24 25 -59 -9z"/>
<path d="M1804 2075 c-7 -19 -14 -39 -14 -45 0 -5 -7 -10 -15 -10 -20 0 -20
-46 0 -54 13 -5 15 -22 14 -93 -1 -80 0 -88 21 -105 34 -27 104 -21 108 9 3
17 -2 22 -25 25 -28 3 -28 3 -31 86 l-3 82 31 0 c25 0 30 4 30 25 0 21 -5 25
-30 25 -29 0 -30 2 -30 45 0 39 -3 45 -21 45 -13 0 -25 -11 -35 -35z"/>
<path d="M2972 2093 c-5 -10 -12 -30 -16 -45 -3 -16 -13 -28 -21 -28 -9 0 -15
-10 -15 -25 0 -14 5 -25 10 -25 6 0 10 -31 10 -74 0 -124 20 -152 101 -144 26
2 35 8 37 25 3 17 -2 22 -25 25 -28 3 -28 3 -31 86 l-3 82 31 0 c25 0 30 4 30
25 0 21 -5 25 -30 25 -29 0 -30 2 -30 45 0 38 -3 45 -20 45 -10 0 -23 -8 -28
-17z"/>
<path d="M3977 2103 c-2 -5 -10 -25 -16 -45 -7 -21 -19 -38 -27 -38 -8 0 -14
-10 -14 -25 0 -16 6 -25 15 -25 12 0 15 -17 15 -95 0 -89 1 -95 24 -110 15
-10 40 -15 68 -13 36 2 44 7 46 26 3 19 -1 22 -27 22 -37 0 -44 18 -39 105 3
60 3 60 36 63 26 3 32 8 32 27 0 19 -6 24 -32 27 -31 3 -33 6 -36 46 -3 33 -7
42 -22 42 -10 0 -21 -3 -23 -7z"/>
<path d="M5271 2101 c-8 -6 -9 -11 -3 -15 6 -3 14 -1 17 5 9 14 2 20 -14 10z"/>
<path d="M5287 2043 c-3 -5 -2 -31 0 -60 5 -46 8 -51 23 -43 15 8 16 16 7 60
-9 46 -19 61 -30 43z"/>
<path d="M574 2019 c-42 -12 -67 -43 -67 -81 0 -41 27 -62 101 -77 33 -6 62
-18 65 -25 15 -38 -81 -52 -106 -15 -20 28 -74 24 -69 -6 7 -41 38 -59 109
-63 81 -4 127 18 136 64 11 61 -24 93 -120 109 -64 10 -70 36 -11 50 19 5 32
1 47 -14 22 -22 65 -28 76 -11 12 19 -24 59 -62 69 -44 13 -57 12 -99 0z"/>
<path d="M894 2020 c-12 -5 -25 -13 -29 -19 -9 -16 -25 -13 -25 4 0 10 -10 15
-30 15 l-30 0 0 -136 0 -135 38 3 37 3 5 99 c4 80 8 101 23 110 12 8 22 8 35
0 14 -9 17 -29 20 -113 l3 -101 34 0 35 0 0 83 c0 105 6 126 38 134 41 10 52
-17 52 -124 l0 -93 35 0 35 0 0 113 c0 99 -3 116 -20 134 -30 33 -77 39 -111
14 l-28 -21 -33 20 c-36 22 -51 23 -84 10z"/>
<path d="M1286 2020 c-37 -12 -66 -39 -66 -62 0 -24 65 -26 78 -1 12 20 70 22
83 2 21 -34 11 -49 -35 -49 -51 0 -106 -17 -123 -39 -16 -21 -16 -73 0 -95 8
-11 31 -20 61 -23 38 -5 53 -2 76 15 28 21 28 21 46 1 25 -28 88 -23 92 7 2
15 -3 23 -17 27 -18 4 -21 14 -23 92 -3 82 -5 89 -29 108 -30 22 -100 31 -143
17z m104 -165 c0 -26 -39 -56 -68 -53 -33 4 -42 36 -16 55 25 18 84 17 84 -2z"/>
<path d="M1634 2020 c-12 -5 -25 -13 -29 -19 -9 -16 -25 -13 -25 4 0 10 -10
15 -30 15 l-31 0 3 -132 3 -133 35 0 35 0 5 99 c4 76 9 101 21 109 21 13 50 2
56 -23 4 -14 14 -20 34 -20 26 0 29 4 29 30 0 19 -9 40 -25 55 -25 26 -45 30
-81 15z"/>
<path d="M2143 2023 c-13 -2 -36 -18 -53 -34 -52 -52 -52 -144 0 -202 27 -30
33 -32 95 -32 61 0 69 3 91 28 13 15 24 39 24 53 0 20 -5 24 -29 24 -23 0 -33
-7 -43 -27 -16 -33 -58 -42 -82 -18 -20 20 -22 113 -3 139 18 25 69 18 82 -11
8 -18 18 -23 47 -23 l38 0 -13 32 c-23 55 -88 86 -154 71z"/>
<path d="M2403 2010 c-64 -33 -89 -111 -59 -185 39 -92 200 -101 247 -14 17
32 14 125 -5 154 -40 60 -116 79 -183 45z m115 -58 c18 -24 15 -112 -5 -134
-23 -25 -68 -23 -87 4 -19 27 -21 108 -3 130 24 31 70 31 95 0z"/>
<path d="M2742 2010 c-39 -24 -42 -24 -42 -5 0 10 -10 15 -30 15 l-31 0 3
-132 3 -133 35 0 35 0 3 94 c3 101 11 121 47 121 36 0 44 -20 47 -121 l3 -94
35 0 35 0 3 95 c4 119 -1 136 -41 160 -40 25 -64 25 -105 0z"/>
<path d="M3212 2010 c-28 -17 -33 -18 -38 -5 -4 8 -18 15 -33 15 l-27 0 0
-132 1 -133 38 -3 37 -3 0 99 c0 75 4 103 15 112 20 17 48 9 60 -18 7 -15 18
-22 37 -22 24 0 28 4 28 30 0 35 -38 80 -67 80 -10 0 -33 -9 -51 -20z"/>
<path d="M3414 2016 c-29 -13 -64 -50 -64 -68 0 -14 72 -9 84 6 19 25 52 28
76 8 36 -29 21 -52 -33 -52 -56 0 -105 -17 -117 -40 -18 -34 -12 -88 12 -104
31 -22 100 -20 128 2 23 18 24 18 42 0 28 -28 92 -21 96 10 3 17 -2 22 -17 22
-20 0 -21 6 -21 81 0 44 -5 89 -11 101 -23 42 -114 60 -175 34z m116 -152 c0
-11 -23 -49 -34 -56 -19 -13 -53 -9 -67 8 -11 14 -10 19 10 35 21 17 91 27 91
13z"/>
<path d="M3723 2015 c-65 -28 -95 -134 -58 -205 49 -95 235 -72 235 29 0 17
-6 21 -35 21 -23 0 -35 -5 -35 -13 0 -8 -9 -22 -20 -32 -16 -15 -26 -17 -48
-9 -22 8 -28 17 -33 54 -8 59 2 92 31 107 28 14 47 6 63 -27 7 -12 15 -22 20
-21 4 0 18 1 32 1 48 0 17 72 -42 96 -41 17 -69 17 -110 -1z"/>
<path d="M4183 2022 c-58 -17 -87 -74 -59 -117 15 -22 43 -34 119 -50 15 -3
31 -13 34 -21 14 -36 -72 -47 -102 -14 -25 28 -71 24 -67 -5 8 -45 37 -60 122
-60 95 0 124 19 124 81 0 48 -27 70 -105 85 -66 13 -81 25 -55 45 21 15 64 9
87 -12 18 -16 55 -19 64 -4 11 17 -16 51 -50 66 -36 15 -74 17 -112 6z"/>
<path d="M5186 2005 c-11 -8 -15 -15 -9 -15 6 0 16 7 23 15 16 19 11 19 -14 0z"/>
<path d="M5422 1995 c0 -16 2 -22 5 -12 2 9 2 23 0 30 -3 6 -5 -1 -5 -18z"/>
<path d="M5996 2011 c-3 -5 1 -14 9 -21 13 -10 15 -9 15 9 0 21 -14 28 -24 12z"/>
<path d="M5173 1933 c-7 -3 -13 -11 -13 -18 0 -7 -7 -15 -15 -19 -22 -8 -19
-53 5 -66 22 -12 44 -5 35 11 -4 5 1 12 9 15 9 3 16 12 16 20 0 7 10 20 23 29
l22 16 -27 -6 c-17 -5 -29 -2 -35 8 -4 8 -14 12 -20 10z"/>
<path d="M4708 1903 c7 -3 16 -2 19 1 4 3 -2 6 -13 5 -11 0 -14 -3 -6 -6z"/>
<path d="M4640 1868 c-25 -27 -32 -30 -40 -18 -7 11 -12 12 -20 4 -19 -19 14
-38 41 -24 19 11 21 10 16 -5 -4 -9 0 -23 8 -32 20 -19 14 -38 -11 -38 -27 0
-44 -13 -37 -30 7 -19 23 -19 23 -1 0 7 9 16 20 19 17 4 20 0 20 -25 0 -27 -3
-30 -25 -26 -21 4 -25 1 -25 -19 0 -42 -30 -97 -76 -140 -25 -23 -49 -42 -52
-42 -4 1 -14 1 -22 0 -13 -1 -13 -2 0 -11 20 -12 1 -45 -26 -45 -12 0 -33 -22
-59 -62 -29 -44 -52 -67 -82 -82 -23 -11 -44 -17 -47 -13 -7 13 1 84 11 90 15
10 64 92 55 92 -14 0 -11 41 4 47 8 3 14 9 14 13 0 5 -18 -1 -40 -11 -38 -18
-64 -53 -53 -71 6 -11 -9 -10 -27 2 -12 8 -12 11 3 28 10 11 15 26 11 36 -4
11 -1 16 10 16 9 0 16 5 16 10 0 6 -4 10 -9 10 -6 0 -13 -4 -16 -10 -3 -5 -15
-10 -26 -10 -13 0 -19 -7 -19 -24 0 -13 -9 -30 -21 -37 -20 -14 -20 -15 -3
-45 17 -30 17 -32 -4 -75 -12 -25 -22 -50 -22 -56 0 -6 -7 -16 -15 -23 -9 -7
-14 -19 -11 -26 3 -7 -6 -15 -20 -18 -13 -4 -24 -14 -24 -22 0 -10 6 -14 15
-10 8 3 15 1 15 -4 0 -6 7 -10 15 -10 13 0 13 -3 -1 -26 -16 -23 -16 -26 -1
-42 15 -15 19 -14 46 6 17 12 32 18 36 13 3 -5 -1 -12 -7 -14 -7 -3 -8 -6 -2
-6 14 -1 95 75 87 82 -3 3 -16 2 -29 -3 -18 -7 -32 -4 -59 11 -39 23 -40 25
-25 42 6 7 17 21 25 32 12 16 16 17 23 7 5 -8 18 -12 28 -11 11 2 30 -1 43 -5
19 -7 22 -13 17 -37 -21 -99 -21 -91 7 -78 24 11 25 13 10 24 -15 11 -13 14
16 29 26 14 35 15 47 5 13 -10 22 -9 50 6 28 15 34 24 34 52 0 30 2 33 31 33
28 0 30 -2 18 -17 -12 -15 -12 -16 1 -8 44 24 119 93 122 110 2 11 11 20 20
20 27 0 49 28 54 71 5 37 20 58 36 48 4 -3 5 -12 2 -22 -7 -20 62 54 77 83 8
15 5 14 -11 -4 -12 -14 -24 -21 -28 -15 -10 13 -47 11 -47 -3 0 -7 -5 -17 -12
-24 -10 -10 -16 -9 -28 1 -13 11 -13 15 -3 21 7 5 13 13 13 19 0 6 15 21 34
32 l34 22 -6 -23 c-6 -23 -4 -22 26 6 19 19 41 30 55 28 14 -1 29 7 38 19 18
26 18 40 -1 32 -8 -3 -14 -2 -12 3 1 4 -9 19 -23 34 -23 23 -26 24 -42 10 -9
-8 -22 -12 -27 -8 -16 9 -13 25 4 25 8 0 15 5 15 11 0 5 5 7 11 3 7 -4 4 7 -7
24 -18 32 -39 35 -86 11 -24 -13 -24 -13 -20 34 l3 42 -21 -24 c-26 -30 -26
-17 1 20 28 39 7 37 -31 -3z m160 -189 c-12 -22 -30 -25 -30 -6 0 17 21 38 32
31 4 -3 3 -14 -2 -25z m-90 -51 c0 -29 -17 -41 -39 -29 -34 19 -25 41 16 41
13 0 23 -6 23 -12z m80 2 c0 -5 -5 -10 -11 -10 -5 0 -7 5 -4 10 3 6 8 10 11
10 2 0 4 -4 4 -10z m-152 -64 c0 -25 -5 -36 -18 -39 -11 -3 -21 -2 -24 1 -10
9 -6 43 3 37 6 -3 15 4 21 15 15 28 18 25 18 -14z m-98 -64 c0 -18 -32 -51
-45 -46 -11 4 -9 11 8 30 20 24 37 31 37 16z m140 -12 c0 -5 -7 -10 -15 -10
-8 0 -15 5 -15 10 0 6 7 10 15 10 8 0 15 -4 15 -10z m-57 -26 c-7 -3 -9 -12
-6 -19 4 -13 -17 -45 -31 -45 -13 0 -1 60 13 63 22 6 39 6 24 1z m-333 -33 c0
-5 -7 -12 -16 -15 -8 -3 -13 -10 -9 -15 6 -11 -13 -26 -22 -17 -8 7 25 56 37
56 6 0 10 -4 10 -9z m270 2 c0 -2 -12 -8 -26 -13 -22 -9 -25 -14 -19 -40 6
-25 3 -31 -19 -41 -14 -7 -26 -15 -26 -19 0 -4 -9 -10 -20 -13 -11 -3 -20 -2
-20 2 0 13 24 31 43 31 10 0 15 4 12 10 -4 6 1 7 10 3 15 -5 15 -3 4 15 -19
31 2 73 36 70 14 -1 25 -4 25 -5z m-340 -38 c0 -8 -6 -15 -14 -15 -20 0 -29
17 -14 23 22 9 28 7 28 -8z m210 -5 c-6 -11 -16 -20 -22 -20 -6 0 -8 -3 -4 -7
4 -5 13 -8 19 -8 5 0 12 -6 15 -14 4 -11 -2 -13 -26 -8 -22 5 -32 2 -36 -10
-4 -9 -9 -13 -12 -10 -6 5 20 61 38 85 6 6 17 12 25 12 11 0 11 -4 3 -20z
m102 -2 c-7 -7 -12 -8 -12 -2 0 14 12 26 19 19 2 -3 -1 -11 -7 -17z m48 -23
c0 -8 -9 -15 -20 -15 -17 0 -19 2 -8 15 17 19 28 19 28 0z m-25 -45 c-21 -24
-35 -26 -35 -6 0 8 10 17 23 19 12 2 24 5 26 6 2 0 -4 -8 -14 -19z m-125 -40
c0 -5 -5 -10 -11 -10 -5 0 -7 5 -4 10 3 6 8 10 11 10 2 0 4 -4 4 -10z m-100
-20 c-6 -11 -16 -18 -21 -14 -6 3 -3 12 8 20 24 18 26 17 13 -6z m80 -4 c0 -2
-7 -6 -15 -10 -8 -3 -15 -1 -15 4 0 6 7 10 15 10 8 0 15 -2 15 -4z m-50 -26
c0 -5 -4 -10 -10 -10 -5 0 -10 5 -10 10 0 6 5 10 10 10 6 0 10 -4 10 -10z
m-160 -80 c0 -5 -4 -10 -10 -10 -5 0 -10 5 -10 10 0 6 5 10 10 10 6 0 10 -4
10 -10z"/>
<path d="M5039 1859 c-9 -17 -6 -19 25 -17 25 2 34 8 33 19 -2 23 -45 21 -58
-2z"/>
<path d="M4510 1821 c0 -6 5 -13 10 -16 6 -3 10 1 10 9 0 9 -4 16 -10 16 -5 0
-10 -4 -10 -9z"/>
<path d="M5304 1799 c-3 -6 -1 -16 5 -22 9 -9 14 -8 21 3 9 15 4 30 -10 30 -5
0 -12 -5 -16 -11z"/>
<path d="M5391 1794 c0 -11 3 -14 6 -6 3 7 2 16 -1 19 -3 4 -6 -2 -5 -13z"/>
<path d="M4515 1760 c-10 -11 -14 -20 -9 -20 12 1 44 25 44 34 0 12 -17 6 -35
-14z"/>
<path d="M4570 1755 c-8 -9 -8 -15 -2 -15 12 0 26 19 19 26 -2 2 -10 -2 -17
-11z"/>
<path d="M5175 1760 c-13 -6 -15 -9 -5 -9 8 0 22 4 30 9 18 12 2 12 -25 0z"/>
<path d="M5381 1754 c0 -11 3 -14 6 -6 3 7 2 16 -1 19 -3 4 -6 -2 -5 -13z"/>
<path d="M5284 1752 c-11 -8 -56 -134 -49 -140 11 -11 26 15 45 75 21 68 22
77 4 65z"/>
<path d="M5158 1683 c7 -3 16 -2 19 1 4 3 -2 6 -13 5 -11 0 -14 -3 -6 -6z"/>
<path d="M4360 1642 c-31 -30 -37 -43 -33 -65 5 -28 6 -28 20 -7 8 12 26 25
38 30 19 7 23 16 22 44 -1 20 -4 36 -6 36 -2 0 -20 -17 -41 -38z"/>
<path d="M5346 1655 c-9 -26 -7 -32 5 -12 6 10 9 21 6 23 -2 3 -7 -2 -11 -11z"/>
<path d="M5437 1652 c-13 -14 -14 -21 -5 -30 16 -16 48 3 48 28 0 25 -22 26
-43 2z"/>
<path d="M5175 1650 c-8 -13 5 -13 25 0 13 8 13 10 -2 10 -9 0 -20 -4 -23 -10z"/>
<path d="M5322 1592 c-11 -25 -11 -25 4 -10 9 9 15 21 13 27 -2 6 -10 -2 -17
-17z"/>
<path d="M3455 1570 c3 -5 10 -10 16 -10 5 0 9 5 9 10 0 6 -7 10 -16 10 -8 0
-12 -4 -9 -10z"/>
<path d="M5116 1571 c-4 -5 3 -7 14 -4 23 6 26 13 6 13 -8 0 -17 -4 -20 -9z"/>
<path d="M3465 1540 c3 -5 8 -10 11 -10 2 0 4 5 4 10 0 6 -5 10 -11 10 -5 0
-7 -4 -4 -10z"/>
<path d="M2716 1531 c-4 -7 -5 -15 -2 -18 9 -9 19 4 14 18 -4 11 -6 11 -12 0z"/>
<path d="M5088 1533 c6 -2 18 -2 25 0 6 3 1 5 -13 5 -14 0 -19 -2 -12 -5z"/>
<path d="M5589 1513 c-13 -16 -12 -17 4 -4 9 7 17 15 17 17 0 8 -8 3 -21 -13z"/>
<path d="M3971 1479 c-18 -17 -20 -23 -9 -30 18 -11 57 26 42 41 -7 7 -18 3
-33 -11z"/>
<path d="M4086 1445 c4 -8 8 -15 10 -15 2 0 4 7 4 15 0 8 -4 15 -10 15 -5 0
-7 -7 -4 -15z"/>
<path d="M5038 1453 c6 -2 18 -2 25 0 6 3 1 5 -13 5 -14 0 -19 -2 -12 -5z"/>
<path d="M5385 1444 c-31 -12 -44 -52 -22 -66 21 -13 87 36 87 65 0 12 -38 12
-65 1z"/>
<path d="M3455 1422 c-26 -35 -47 -74 -35 -67 5 3 10 -1 12 -10 2 -12 10 -9
36 11 34 27 40 50 20 77 -12 14 -15 13 -33 -11z"/>
<path d="M3546 1424 c-9 -24 -7 -28 9 -14 17 14 20 30 6 30 -5 0 -12 -7 -15
-16z"/>
<path d="M4114 1432 c3 -5 -4 -16 -15 -25 -18 -16 -19 -16 -19 5 0 26 -5 21
-13 -13 -6 -24 -5 -25 35 -23 23 1 44 7 46 12 5 15 -16 52 -29 52 -6 0 -8 -4
-5 -8z"/>
<path d="M5010 1420 c0 -5 12 -10 28 -10 21 0 24 2 12 10 -20 13 -40 13 -40 0z"/>
<path d="M3638 1403 c7 -3 16 -2 19 1 4 3 -2 6 -13 5 -11 0 -14 -3 -6 -6z"/>
<path d="M2982 1374 c-22 -15 -30 -44 -12 -44 6 0 19 9 30 20 36 36 23 53 -18
24z"/>
<path d="M4920 1386 c0 -2 9 -6 20 -9 11 -3 18 -1 14 4 -5 9 -34 13 -34 5z"/>
<path d="M4868 1367 c-19 -15 -31 -47 -17 -47 20 0 49 21 49 35 0 20 -15 26
-32 12z"/>
<path d="M4970 1365 c0 -16 16 -20 24 -6 3 5 -1 11 -9 15 -9 3 -15 0 -15 -9z"/>
<path d="M4093 1330 c-12 -10 -24 -16 -27 -13 -3 4 -6 -6 -6 -20 0 -15 5 -27
10 -27 6 0 10 8 10 19 0 10 10 25 23 34 12 8 19 18 16 21 -3 3 -15 -3 -26 -14z"/>
<path d="M3585 1320 c-13 -5 -14 -9 -5 -9 8 0 24 4 35 9 13 5 14 9 5 9 -8 0
-24 -4 -35 -9z"/>
<path d="M5046 1298 c-14 -18 -23 -34 -21 -36 5 -5 54 50 55 61 0 14 -9 7 -34
-25z"/>
<path d="M3620 1290 c-8 -5 -10 -10 -5 -10 6 0 17 5 25 10 8 5 11 10 5 10 -5
0 -17 -5 -25 -10z"/>
<path d="M5985 1290 c-3 -5 1 -10 9 -10 9 0 16 5 16 10 0 6 -4 10 -9 10 -6 0
-13 -4 -16 -10z"/>
<path d="M4926 1276 c10 -8 21 -12 24 -10 5 6 -21 24 -34 24 -6 0 -1 -6 10
-14z"/>
<path d="M3260 1269 c0 -5 5 -7 10 -4 6 3 10 8 10 11 0 2 -4 4 -10 4 -5 0 -10
-5 -10 -11z"/>
<path d="M5369 1269 c-8 -5 -10 -9 -6 -9 4 0 3 -9 -3 -19 -8 -16 -6 -20 8 -23
17 -4 62 19 62 32 0 13 -46 28 -61 19z"/>
<path d="M4870 1240 c0 -5 7 -10 16 -10 8 0 12 5 9 10 -3 6 -10 10 -16 10 -5
0 -9 -4 -9 -10z"/>
<path d="M3600 1215 c-14 -8 -20 -14 -15 -14 6 0 21 6 35 14 14 8 21 14 15 14
-5 0 -21 -6 -35 -14z"/>
<path d="M3487 1193 c-12 -20 -18 -123 -7 -123 13 0 17 11 25 78 3 31 2 52 -4
52 -5 0 -12 -3 -14 -7z"/>
<path d="M3268 1163 c7 -3 16 -2 19 1 4 3 -2 6 -13 5 -11 0 -14 -3 -6 -6z"/>
<path d="M4812 1156 c7 -8 16 -12 21 -9 11 7 -2 23 -19 23 -12 0 -12 -2 -2
-14z"/>
<path d="M3398 1153 c-24 -6 -23 -23 1 -23 10 0 21 7 25 15 6 15 4 16 -26 8z"/>
<path d="M3605 1140 c-3 -6 1 -7 9 -4 18 7 21 14 7 14 -6 0 -13 -4 -16 -10z"/>
<path d="M4460 1135 c-19 -23 -1 -39 21 -19 10 9 19 21 19 26 0 13 -27 9 -40
-7z"/>
<path d="M5010 1098 c-27 -29 -27 -68 0 -68 11 0 20 -6 20 -13 0 -15 56 -11
66 5 3 5 0 29 -7 54 -11 35 -18 44 -36 44 -12 0 -31 -10 -43 -22z"/>
<path d="M3595 1100 c-3 -6 1 -7 9 -4 18 7 21 14 7 14 -6 0 -13 -4 -16 -10z"/>
<path d="M4735 1100 c3 -5 11 -10 16 -10 6 0 7 5 4 10 -3 6 -11 10 -16 10 -6
0 -7 -4 -4 -10z"/>
<path d="M4815 1090 c10 -11 20 -20 23 -20 3 0 -3 9 -13 20 -10 11 -20 20 -23
20 -3 0 3 -9 13 -20z"/>
<path d="M4936 1080 c-38 -12 -68 -44 -54 -58 13 -13 50 9 73 44 8 13 14 24
13 23 -2 0 -16 -5 -32 -9z"/>
<path d="M4700 1071 c0 -18 37 -54 44 -43 3 6 -3 17 -14 25 -11 7 -17 17 -13
20 3 4 1 7 -5 7 -7 0 -12 -4 -12 -9z"/>
<path d="M5435 1018 c-37 -44 -17 -62 40 -36 31 14 34 53 5 61 -14 3 -28 -4
-45 -25z"/>
<path d="M3485 1019 c-11 -17 1 -21 15 -4 8 9 8 15 2 15 -6 0 -14 -5 -17 -11z"/>
<path d="M3636 1015 c-11 -8 -15 -15 -9 -15 6 0 16 7 23 15 16 19 11 19 -14 0z"/>
<path d="M4630 1020 c0 -21 16 -44 23 -33 4 6 0 19 -8 29 -11 15 -14 16 -15 4z"/>
<path d="M3527 1006 c-7 -19 4 -27 21 -17 10 6 10 10 -1 20 -12 9 -16 8 -20
-3z"/>
<path d="M4742 994 c-18 -14 -32 -30 -32 -35 0 -6 5 -6 13 1 6 5 23 19 37 29
14 11 23 22 20 25 -3 3 -20 -6 -38 -20z"/>
<path d="M5220 995 c0 -8 4 -15 9 -15 5 0 11 7 15 15 3 9 0 15 -9 15 -8 0 -15
-7 -15 -15z"/>
<path d="M3175 989 c-4 -6 -5 -13 -2 -16 7 -7 27 6 27 18 0 12 -17 12 -25 -2z"/>
<path d="M4590 985 c0 -8 4 -15 10 -15 5 0 7 7 4 15 -4 8 -8 15 -10 15 -2 0
-4 -7 -4 -15z"/>
<path d="M5849 974 c-12 -14 -11 -16 5 -13 11 2 21 10 24 17 5 17 -13 15 -29
-4z"/>
<path d="M3655 959 c-11 -17 1 -21 15 -4 8 9 8 15 2 15 -6 0 -14 -5 -17 -11z"/>
<path d="M3680 947 c-32 -29 -54 -67 -40 -68 63 -6 91 8 82 43 -4 15 -2 19 7
13 10 -6 11 -3 2 14 -14 26 -20 26 -51 -2z"/>
<path d="M3784 957 c-12 -7 -19 -17 -17 -23 5 -14 44 -6 55 10 19 27 -1 34
-38 13z"/>
<path d="M4550 959 c0 -5 5 -7 10 -4 6 3 10 8 10 11 0 2 -4 4 -10 4 -5 0 -10
-5 -10 -11z"/>
<path d="M4810 960 c0 -5 7 -7 15 -4 8 4 15 8 15 10 0 2 -7 4 -15 4 -8 0 -15
-4 -15 -10z"/>
<path d="M5685 950 c-3 -5 -2 -10 4 -10 5 0 13 5 16 10 3 6 2 10 -4 10 -5 0
-13 -4 -16 -10z"/>
<path d="M4510 935 c0 -8 4 -15 10 -15 5 0 7 7 4 15 -4 8 -8 15 -10 15 -2 0
-4 -7 -4 -15z"/>
<path d="M4630 910 c-13 -8 -13 -10 2 -10 9 0 20 5 23 10 8 13 -5 13 -25 0z"/>
<path d="M4475 890 c3 -5 8 -10 11 -10 2 0 4 5 4 10 0 6 -5 10 -11 10 -5 0 -7
-4 -4 -10z"/>
<path d="M4715 884 c-42 -22 -59 -40 -52 -58 9 -22 27 -20 60 7 20 15 28 30
25 45 -3 21 -4 21 -33 6z"/>
<path d="M3541 856 c-8 -10 -8 -16 2 -25 8 -6 18 -7 22 -3 5 4 5 2 2 -4 -9
-16 27 -59 41 -50 7 4 12 12 12 17 0 6 -4 8 -9 5 -5 -3 -16 10 -25 29 -20 42
-30 49 -45 31z"/>
<path d="M4498 832 c-38 -20 -68 -40 -68 -45 0 -5 3 -7 8 -5 67 32 122 65 126
75 3 7 4 13 3 12 -1 0 -32 -17 -69 -37z"/>
<path d="M3771 843 c-7 -8 -11 -16 -8 -19 2 -2 10 2 17 11 17 20 9 27 -9 8z"/>
<path d="M4315 840 c-3 -5 -1 -10 4 -10 6 0 11 5 11 10 0 6 -2 10 -4 10 -3 0
-8 -4 -11 -10z"/>
<path d="M5531 827 c-6 -8 -8 -16 -5 -20 10 -9 34 4 34 19 0 18 -14 18 -29 1z"/>
<path d="M4075 784 c-3 -10 -12 -31 -20 -46 -8 -16 -10 -28 -6 -28 11 0 44 80
37 88 -3 3 -8 -4 -11 -14z"/>
<path d="M4116 785 c-3 -9 0 -15 9 -15 16 0 20 16 6 24 -5 3 -11 -1 -15 -9z"/>
<path d="M4001 763 c-10 -26 -10 -27 4 -9 8 11 15 23 15 28 0 15 -7 8 -19 -19z"/>
<path d="M4750 780 c-9 -6 -10 -10 -3 -10 6 0 15 5 18 10 8 12 4 12 -15 0z"/>
<path d="M4994 765 c-9 -14 -14 -29 -10 -33 11 -10 60 21 64 41 5 27 -35 21
-54 -8z"/>
<path d="M3690 769 c0 -5 5 -7 10 -4 6 3 10 8 10 11 0 2 -4 4 -10 4 -5 0 -10
-5 -10 -11z"/>
<path d="M3859 763 c-13 -16 -12 -17 4 -4 9 7 17 15 17 17 0 8 -8 3 -21 -13z"/>
<path d="M3460 756 c0 -2 8 -10 18 -17 15 -13 16 -12 3 4 -13 16 -21 21 -21
13z"/>
<path d="M4318 748 c-27 -9 -39 -28 -18 -28 6 0 10 5 10 10 0 6 3 9 8 9 21 -4
42 2 42 11 0 12 -6 12 -42 -2z"/>
<path d="M3645 741 c-3 -6 3 -15 14 -21 21 -11 37 2 26 20 -8 13 -32 13 -40 1z"/>
<path d="M2826 724 c-7 -17 0 -34 14 -34 11 0 40 29 40 41 0 16 -48 10 -54 -7z"/>
<path d="M5180 729 c0 -5 -11 -11 -24 -15 -29 -7 -61 -40 -48 -48 5 -3 24 6
42 19 19 14 43 25 54 26 12 0 15 3 8 6 -6 2 -10 8 -8 12 3 4 -1 8 -9 8 -8 0
-15 -4 -15 -8z"/>
<path d="M3497 709 c7 -7 15 -10 18 -7 3 3 -2 9 -12 12 -14 6 -15 5 -6 -5z"/>
<path d="M3133 703 c-14 -5 -18 -43 -5 -43 12 0 32 23 32 37 0 13 -6 15 -27 6z"/>
<path d="M3725 701 c-7 -13 3 -18 53 -30 34 -7 42 -6 42 6 0 8 -4 12 -9 8 -5
-3 -13 0 -16 6 -4 5 -13 8 -21 5 -8 -3 -14 -1 -14 4 0 13 -27 13 -35 1z"/>
<path d="M4180 675 c-7 -9 -10 -18 -7 -21 9 -9 45 6 51 21 7 20 -28 20 -44 0z"/>
<path d="M3950 661 c0 -5 11 -8 25 -6 38 4 43 15 7 15 -18 0 -32 -4 -32 -9z"/>
<path d="M3187 653 c-12 -11 -8 -23 7 -23 7 0 19 7 26 15 10 12 9 15 -7 15
-11 0 -23 -3 -26 -7z"/>
<path d="M5271 646 c-9 -10 -9 -16 -1 -21 12 -7 40 11 40 26 0 14 -26 10 -39
-5z"/>
<path d="M580 525 c0 -8 5 -15 10 -15 6 0 10 7 10 15 0 8 -4 15 -10 15 -5 0
-10 -7 -10 -15z"/>
<path d="M617 534 c-8 -8 1 -24 14 -24 5 0 9 7 9 15 0 15 -12 20 -23 9z"/>
<path d="M4636 495 c-3 -9 0 -15 8 -15 7 0 19 7 26 15 10 12 9 15 -8 15 -11 0
-22 -7 -26 -15z"/>
<path d="M560 490 c0 -5 5 -10 10 -10 6 0 10 5 10 10 0 6 -4 10 -10 10 -5 0
-10 -4 -10 -10z"/>
<path d="M630 490 c0 -5 7 -10 15 -10 8 0 15 5 15 10 0 6 -7 10 -15 10 -8 0
-15 -4 -15 -10z"/>
<path d="M770 481 c-15 -29 4 -63 32 -59 12 2 23 10 25 18 4 12 3 13 -5 1 -14
-19 -42 -6 -42 19 0 25 28 38 42 19 8 -12 9 -11 5 1 -6 24 -44 24 -57 1z"/>
<path d="M861 464 c-7 -19 -10 -38 -7 -41 3 -4 6 -1 6 5 0 16 33 15 48 0 16
-16 15 -5 -2 37 -19 44 -29 44 -45 -1z m25 -11 c-10 -10 -19 5 -10 18 6 11 8
11 12 0 2 -7 1 -15 -2 -18z"/>
<path d="M938 488 c-2 -7 -1 -26 3 -43 4 -16 7 -22 8 -12 1 22 20 22 36 0 10
-14 12 -10 11 23 -1 34 -4 39 -27 42 -15 2 -28 -3 -31 -10z m45 -13 c1 -5 -6
-11 -15 -13 -11 -2 -18 3 -18 13 0 17 30 18 33 0z"/>
<path d="M1020 460 c0 -36 3 -40 25 -40 14 0 29 8 35 20 15 28 -4 60 -35 60
-22 0 -25 -4 -25 -40z m48 6 c4 -19 -16 -39 -30 -30 -4 3 -8 16 -8 30 0 19 5
25 17 22 10 -2 19 -12 21 -22z"/>
<path d="M1107 463 c-8 -21 -13 -40 -10 -43 3 -3 8 1 10 8 5 14 43 16 43 2 0
-5 4 -10 9 -10 13 0 -12 73 -26 77 -6 2 -17 -13 -26 -34z m33 2 c0 -8 -4 -15
-10 -15 -5 0 -10 7 -10 15 0 8 5 15 10 15 6 0 10 -7 10 -15z"/>
<path d="M1181 458 c1 -38 2 -40 8 -13 l6 29 21 -27 c12 -15 25 -27 28 -27 3
0 6 18 6 40 0 41 -20 58 -21 18 l0 -23 -16 23 c-23 33 -33 27 -32 -20z"/>
<path d="M1272 488 c-25 -25 -7 -68 29 -68 25 0 42 26 35 55 -7 27 -42 35 -64
13z m55 -14 c7 -19 -20 -49 -36 -40 -12 8 -15 39 -4 49 12 12 33 7 40 -9z"/>
<path d="M5145 470 c-3 -6 1 -7 9 -4 18 7 21 14 7 14 -6 0 -13 -4 -16 -10z"/>
<path d="M5554 465 c-16 -12 -17 -14 -2 -15 23 0 48 11 48 21 0 14 -24 11 -46
-6z"/>
<path d="M577 464 c-8 -8 1 -24 14 -24 5 0 9 7 9 15 0 15 -12 20 -23 9z"/>
<path d="M617 464 c-8 -8 1 -24 14 -24 5 0 9 7 9 15 0 15 -12 20 -23 9z"/>
<path d="M4226 425 c-3 -9 0 -15 9 -15 16 0 20 16 6 24 -5 3 -11 -1 -15 -9z"/>
<path d="M4740 420 c0 -5 5 -10 10 -10 6 0 10 5 10 10 0 6 -4 10 -10 10 -5 0
-10 -4 -10 -10z"/>
<path d="M4480 369 c0 -5 5 -7 10 -4 6 3 10 8 10 11 0 2 -4 4 -10 4 -5 0 -10
-5 -10 -11z"/>
<path d="M4849 349 c-22 -22 -22 -24 -5 -27 25 -5 54 24 39 39 -8 8 -17 5 -34
-12z"/>
<path d="M3994 306 c-13 -10 -16 -18 -8 -25 7 -8 16 -7 30 3 13 10 16 18 8 25
-7 8 -16 7 -30 -3z"/>
<path d="M5200 300 c-9 -17 -8 -20 8 -20 10 0 27 9 37 20 18 20 17 20 -8 20
-16 0 -30 -8 -37 -20z"/>
<path d="M4315 230 c-3 -5 1 -10 9 -10 9 0 16 5 16 10 0 6 -4 10 -9 10 -6 0
-13 -4 -16 -10z"/>
</g>
</svg>
